<svg id="Layer_1" data-name="Layer 1" xmlns="http://www.w3.org/2000/svg" viewBox="0 0 379.47 332.75"><defs><style>.cls-1{fill:red;}</style></defs><path class="cls-1" d="M579.79,492.1a36.06,36.06,0,0,1-11.48-7.55c-3-3.05,4.53-4.68,7-6.11,3.15-1.86,4.63-4.65,2.61-7.86-3.13-5-10.31-7.47-14.31-11.73-4.71-5-8.36-11-7.34-18.05,1.08-7.53,10-13.14,15.57-17,.57-.38,1-1,.3-1.49-2.78-1.87-4.67-4.76-7.42-6.61-1.48.44-1.58.46-.31.06.92-.28,1.87-.46,2.81-.67,5.35-1.15,10.82-1.85,16.21-2.8,5.66-1,17.75-1.75,21.35-7.26,4.18-6.4-12.25-10.2-15.77-10.23-10.51-.09-18.63,7.41-29.47,2.71-11.17-4.84-6.68-23.39-4.56-32.15.22-.91-1.21-1-2.35-.61,1-1.62,2-3.08,2.35-3.85a161,161,0,0,0,8.9-20.34c3-8.66,3.69-20.07-8.76-17.29-6.46,1.44-12.52,3.85-16.22,9.55-2.3,3.53-3.22,7.63-6,10.93-8.94,10.75-15.06-4-17.78-8.71-2-3.48-10.71-3.59-14.11-4.07a17.26,17.26,0,0,0-4.12.13c-3.62-3-6.67-5.86-5.43-11a199.36,199.36,0,0,0,4.21-19.55c1.25-8.78-1.25-21-12.78-20-17.44,1.49-13.25,28-17.34,40.9-4.91-1.19-9.11.35-13.6,3.35-8,5.35-9-8.78-8.58-13.07.66-6.06-.89-11.09-3.47-16.55-8.74-18.49-24.79-8.75-27.16,8.13-1.3,9.29,6.22,17.91,10.59,25.35,2.55,4.35,4.19,8.92,3.15,14-.89,4.25-10.34,16.16-13.85,9.8-5.87-10.63-11.15-6-16.24.9-7.7,4.56-15.73,8.6-21.66,15.48-5.26,6.09-4.25,11.8-2.2,18.92,2.66,9.23,2.75,22-10.47,20.13-4.83-.69-9.68-1.49-14.56-1.11-11.92.95-1.7,13.24,3.7,16.15,3.1,1.67,7.71-.57,10.76-1.35,3.35-.86,5.78-.68,5.58,3.58-.19,3.94-4.47,4.74-7.79,5.12-2.73.32-5.95.52-8.4,1.9-7.15,4-11.6,18.24-1.67,21.34,8.88,2.77,22.45-5.68,28.66,1.66,5.2,6.14,11.19,14.84,9.91,23.37-.43,2.91-4,5.82-5.06,8.61-1.86,4.83-5.32,7.74-7.52,12.19-2.44,4.93,5,12.14,9.06,13.49,5.76,1.92,12.18-1.28,17.65-3.08,5-1.66,9.92-3.81,15.16-4.73,4.7-.83,6,1.34,5.81,4.43-7,8.95-15.65,19.65-11.39,29.79,3.94,9.4,16.79,8.77,20.4.23,1.34-3.16,1.92-6.54,3.43-9.66,4.16-8.58,11.49-4.15,12.92,1.53,1.07,4.24.84,9.44,5.33,11.6,3.25,1.55,7.55.12,9.94-2.21,1.5-1.47,1.9-4.05,2.3-6a23.15,23.15,0,0,1,1.48-5.26c2.21-4.75,9.93-2,11.34,2.32,2.35,7.2,1.9,11.91,6.82,18.23,2.06,2.64,5.7,7.36,9.7,5.81,3.14-1.21,3.53-4.74,4-7.69,1.37-8.58,1.52-16.65,9.33-22.17s19.26-5.46,28-9.43c9.54-4.33,9.54-19.77,24.08-12.67,3.6,1.76,6,7,8.58,9.86a66.65,66.65,0,0,0,6.31,5.92,59.38,59.38,0,0,0,15.63,9.49c6,2.48,14.79,3,16.17-5C610.86,506,592.85,497.92,579.79,492.1Z" transform="translate(-250.09 -280.48)"/><path class="cls-1" d="M346.25,378.38c7.17,2.66,14.53-2.12,17.33-8.68,1.28-3,1.53-7.11-.47-9.87-2.53-3.51-6.94-4.11-11-3.93a2.56,2.56,0,0,0-.81.21,12,12,0,0,0-9.76,5C337,367.12,339.13,375.74,346.25,378.38Z" transform="translate(-250.09 -280.48)"/><path class="cls-1" d="M327.51,436.29c-2.29-2.82-6.8-2.88-10.74-2.39-8-1.41-16,1.3-19.72,9.25a.77.77,0,0,0,0,.89c8,7.72,20.92,9.79,29,.89C328.21,442.62,329.73,439,327.51,436.29Z" transform="translate(-250.09 -280.48)"/><path class="cls-1" d="M270.34,430.81c.28-.6.1-1.22-1-1.37a17.51,17.51,0,0,0-17.58,8.76c-3.35,5.68-1.53,12.13,4.75,14.41a15.71,15.71,0,0,0,18.76-6.74C278.81,439.74,275.73,433.74,270.34,430.81Z" transform="translate(-250.09 -280.48)"/><path class="cls-1" d="M458.25,558.38c.28-.32.24-.6-.47-.72-6.74-1.14-14,1.76-17.18,8-3.69,7.4,4.72,13.16,11.32,13.35,5.94.16,11.7-3.1,13.83-8.78C468.07,564.1,463.47,560.08,458.25,558.38Z" transform="translate(-250.09 -280.48)"/><path class="cls-1" d="M488.58,594.78c-1.44-.36-2.79,1.14-2.22,2.1-4,.13-7.84,1.56-10.1,5.07-2.4,3.71-1.51,8.24,2.48,10.29,5.34,2.76,13.56-.64,16.91-5.07a7,7,0,0,0,1-7.22C495.08,596.84,491.75,595.56,488.58,594.78Z" transform="translate(-250.09 -280.48)"/><path class="cls-1" d="M626.54,510.27c.38-.18,1.52-.75,1-1.24a1.74,1.74,0,0,0-1.46-.2,1.58,1.58,0,0,0-.85-.37,3.73,3.73,0,0,1-.08-.5c0-.83-2.83-.41-3.49.53-1.08-.2-2.64.4-2.66,1.37,0,2-.92,3.95-.78,5.92.18,2.4,3,3.15,4.93,3.56,2.15.45,3.43.48,4.95-1.23a5,5,0,0,0,1.49-3.64C629.44,512.63,627.17,511.86,626.54,510.27Z" transform="translate(-250.09 -280.48)"/><path class="cls-1" d="M616.32,435.72a1,1,0,0,0-.75-1.2c-3.14-1-7.13-1.64-9.73.93a6.31,6.31,0,0,0-1.59,5.08,3.16,3.16,0,0,0-.89,3.89c1.11,2.68,5.26,5.83,8.22,6,4.13.21,7-5.33,8.27-8.64C621.18,438.23,619.09,436.53,616.32,435.72Z" transform="translate(-250.09 -280.48)"/><path class="cls-1" d="M525,316c0,.27.61.25,1,.2a7.84,7.84,0,0,0,.21,2.31c.18.78,1.56.6,2.07.46a11.1,11.1,0,0,0,5-2.33c1-1,1.53-2.3,2.49-3.3.24-.26.58-.73.22-1.06a8.41,8.41,0,0,0-1.18-.88c.1-.15.07-.29-.26-.33-1-.12-2-1.21-3-1.73a4.8,4.8,0,0,1-.46-1.83c0-.56-3.67,0-3.63,1a3.43,3.43,0,0,0,.13.79,7,7,0,0,0-1.88.92c-1,.72-.76,1.55-.76,2.73Z" transform="translate(-250.09 -280.48)"/><path class="cls-1" d="M348.09,583c-.88-.56-3.94.92-3.42,1.25.36.23.7.46,1,.71-7.37-.26-14,4.35-17.57,10.75-3.86,6.87-.95,14.81,7.54,15.31,7.17.42,12.83-4.78,14.36-11.58,0-.23.07-.45.11-.67a1.31,1.31,0,0,0,.55-.43C354.08,592.45,354.24,586.92,348.09,583Z" transform="translate(-250.09 -280.48)"/></svg>